<svg xmlns="http://www.w3.org/2000/svg" viewBox="0 0 720 650" width="720" height="650">
  <g transform="translate(186,-2) scale(0.68)"><path fill="#00B5E2" d="M 112.2 453.1 C 117.1 451.0 123.6 444.4 124.7 440.3 C 125.2 438.7 125.5 418.6 125.5 395.5 L 125.5 353.5 L 123.0 349.0 C 121.6 346.6 118.6 343.2 116.2 341.5 L 111.8 338.5 L 91.0 338.2 C 77.7 338.0 68.7 338.3 66.0 339.0 C 60.6 340.4 53.9 347.1 52.2 352.6 C 51.3 355.6 51.0 368.0 51.0 396.8 C 51.0 433.7 51.1 437.2 52.9 441.2 C 55.2 446.5 59.3 450.7 64.5 453.1 C 67.9 454.6 71.5 454.9 88.2 454.9 C 105.2 455.0 108.4 454.8 112.2 453.1 Z M 241.9 453.5 C 253.5 449.4 256.0 444.9 260.5 420.2 C 267.3 382.1 272.7 340.2 275.5 303.5 C 277.9 271.0 277.5 267.3 270.7 260.2 C 265.3 254.6 260.5 252.6 252.5 252.7 C 248.7 252.8 232.7 253.0 217.0 253.2 C 185.1 253.6 185.4 253.5 178.7 260.9 C 176.5 263.3 174.5 267.1 173.5 270.5 C 171.9 275.8 171.9 276.4 174.9 292.2 C 182.5 332.3 187.5 372.5 191.0 421.4 C 191.6 429.9 192.7 437.9 193.6 439.9 C 195.7 445.0 200.7 449.8 206.5 452.6 C 211.0 454.7 212.9 455.0 224.6 455.0 C 233.7 455.0 239.1 454.5 241.9 453.5 Z M 382.6 451.4 C 385.8 449.3 387.9 445.6 394.1 431.9 C 399.8 419.1 411.3 391.1 414.0 383.5 C 436.8 319.1 448.6 272.2 457.5 210.5 C 458.9 200.6 460.5 190.0 461.1 186.9 C 462.1 181.9 462.0 180.8 460.0 176.2 C 457.4 170.1 452.6 165.6 447.1 163.9 C 440.1 161.8 436.2 163.4 422.4 173.9 C 415.1 179.5 400.6 187.1 392.0 189.9 C 378.5 194.2 360.1 195.2 343.8 192.6 C 331.3 190.5 327.3 191.7 320.1 199.5 C 314.8 205.3 311.9 211.6 311.3 219.0 C 310.8 223.9 311.2 225.8 314.5 233.6 C 339.5 294.1 352.4 351.4 357.0 423.1 C 358.3 443.5 359.9 447.7 368.2 451.9 C 373.0 454.3 378.3 454.1 382.6 451.4 Z M 378.1 161.4 C 386.8 158.8 392.5 155.4 399.8 148.5 C 410.9 138.1 416.2 125.8 416.2 110.5 C 416.2 95.8 411.1 83.4 400.8 73.2 C 393.7 66.0 385.8 61.6 375.4 59.0 C 365.9 56.5 361.5 56.5 352.4 58.9 C 333.7 63.7 319.9 76.2 313.9 93.7 C 312.0 99.0 311.5 102.7 311.5 110.5 C 311.5 122.4 314.0 130.7 320.1 140.0 C 326.8 150.0 338.4 158.4 349.9 161.6 C 356.6 163.4 371.6 163.3 378.1 161.4 Z"/></g>
  <g transform="translate(40.0,452)"><path fill="#333F48" d="M46.13 2.05Q37.94 2.05 29.48 0.84Q21.02 -0.37 14.14 -3.53Q9.49 -5.39 7.53 -8.56Q5.58 -11.72 5.67 -15.25Q5.77 -18.79 7.72 -21.67Q9.67 -24.55 12.93 -25.76Q16.18 -26.97 20.27 -25.48Q28.09 -22.69 34.32 -21.48Q40.55 -20.27 46.31 -20.27Q53.20 -20.27 56.17 -22.23Q59.15 -24.18 59.15 -27.34Q59.15 -30.13 57.19 -31.62Q55.24 -33.11 51.71 -33.67L31.06 -37.01Q19.53 -39.06 13.21 -45.48Q6.88 -51.89 6.88 -62.31Q6.88 -71.98 12.37 -78.96Q17.86 -85.93 27.44 -89.75Q37.01 -93.56 49.48 -93.56Q57.85 -93.56 64.73 -92.35Q71.61 -91.14 78.12 -87.98Q82.21 -86.30 83.89 -83.14Q85.56 -79.98 85.19 -76.54Q84.82 -73.10 82.86 -70.22Q80.91 -67.33 77.56 -66.31Q74.21 -65.29 69.75 -66.77Q63.61 -69.19 58.87 -70.31Q54.13 -71.42 50.03 -71.42Q42.41 -71.42 39.25 -69.38Q36.08 -67.33 36.08 -64.17Q36.08 -61.75 37.76 -60.17Q39.43 -58.59 42.97 -58.03L63.61 -54.50Q75.52 -52.64 81.93 -46.41Q88.35 -40.18 88.35 -29.57Q88.35 -14.51 76.82 -6.23Q65.29 2.05 46.13 2.05ZM148.99 2.05Q135.04 2.05 126.02 -2.23Q116.99 -6.51 112.53 -15.16Q108.07 -23.81 108.07 -36.83V-67.15H101.74Q95.79 -67.15 92.53 -70.31Q89.28 -73.47 89.28 -79.42Q89.28 -85.37 92.53 -88.44Q95.79 -91.51 101.74 -91.51H108.07V-103.04Q108.07 -111.23 112.34 -115.51Q116.62 -119.78 124.62 -119.78Q132.62 -119.78 136.90 -115.51Q141.17 -111.23 141.17 -103.04V-91.51H156.43Q162.56 -91.51 165.82 -88.44Q169.07 -85.37 169.07 -79.42Q169.07 -73.47 165.82 -70.31Q162.56 -67.15 156.43 -67.15H141.17V-37.94Q141.17 -31.06 144.43 -27.81Q147.68 -24.55 154.75 -24.55Q157.36 -24.55 159.77 -25.11Q162.19 -25.67 164.24 -25.67Q167.21 -25.85 169.07 -23.90Q170.93 -21.95 170.93 -15.07Q170.93 -9.49 169.26 -5.67Q167.59 -1.86 163.31 -0.19Q160.70 0.74 156.24 1.40Q151.78 2.05 148.99 2.05ZM229.15 2.05Q212.41 2.05 200.23 -3.81Q188.05 -9.67 181.54 -20.46Q175.03 -31.25 175.03 -45.94Q175.03 -60.08 181.26 -70.77Q187.49 -81.47 198.37 -87.51Q209.25 -93.56 223.20 -93.56Q233.43 -93.56 241.80 -90.30Q250.17 -87.05 256.12 -80.82Q262.07 -74.59 265.14 -65.84Q268.21 -57.10 268.21 -46.31Q268.21 -42.59 266.17 -40.83Q264.12 -39.06 259.66 -39.06H202.74V-54.68H244.03L241.06 -52.27Q241.06 -59.15 239.20 -63.43Q237.34 -67.70 233.71 -69.94Q230.08 -72.17 224.69 -72.17Q218.92 -72.17 214.74 -69.47Q210.55 -66.77 208.32 -61.57Q206.09 -56.36 206.09 -48.55V-46.87Q206.09 -33.67 211.95 -27.99Q217.81 -22.32 230.08 -22.32Q234.17 -22.32 239.48 -23.34Q244.78 -24.37 249.61 -26.23Q254.45 -28.09 257.98 -26.88Q261.52 -25.67 263.47 -22.79Q265.42 -19.90 265.61 -16.27Q265.79 -12.65 263.93 -9.21Q262.07 -5.77 257.80 -3.91Q251.29 -0.93 243.94 0.56Q236.59 2.05 229.15 2.05ZM298.34 1.67Q290.53 1.67 286.25 -2.60Q281.98 -6.88 281.98 -15.07V-76.63Q281.98 -84.63 286.16 -88.91Q290.35 -93.19 298.16 -93.19Q305.97 -93.19 310.06 -88.91Q314.15 -84.63 314.15 -76.63V-66.40L312.11 -75.52Q316.01 -83.70 323.73 -88.63Q331.45 -93.56 342.05 -93.56Q352.10 -93.56 359.26 -88.72Q366.42 -83.89 369.58 -74.03H366.98Q371.26 -83.14 379.81 -88.35Q388.37 -93.56 398.78 -93.56Q409.57 -93.56 416.45 -89.37Q423.34 -85.19 426.78 -76.35Q430.22 -67.52 430.22 -54.13V-15.07Q430.22 -6.88 425.85 -2.60Q421.48 1.67 413.48 1.67Q405.67 1.67 401.39 -2.60Q397.11 -6.88 397.11 -15.07V-53.20Q397.11 -61.19 394.69 -64.73Q392.27 -68.26 386.69 -68.26Q379.81 -68.26 376.19 -63.43Q372.56 -58.59 372.56 -49.66V-15.07Q372.56 -6.88 368.28 -2.60Q364.00 1.67 356.00 1.67Q348.01 1.67 343.73 -2.60Q339.45 -6.88 339.45 -15.07V-53.20Q339.45 -61.19 337.03 -64.73Q334.61 -68.26 329.03 -68.26Q322.34 -68.26 318.71 -63.43Q315.08 -58.59 315.08 -49.66V-15.07Q315.08 1.67 298.34 1.67ZM495.13 2.05Q479.69 2.05 468.25 -3.72Q456.82 -9.49 450.49 -20.37Q444.17 -31.25 444.17 -45.94Q444.17 -57.10 447.70 -65.94Q451.24 -74.77 458.02 -80.91Q464.81 -87.05 474.21 -90.30Q483.60 -93.56 495.13 -93.56Q500.53 -93.56 506.48 -92.53Q512.43 -91.51 518.75 -88.72Q523.22 -87.05 524.98 -83.61Q526.75 -80.17 526.47 -76.26Q526.19 -72.35 524.24 -69.19Q522.29 -66.03 518.85 -64.91Q515.41 -63.80 511.13 -65.84Q508.15 -67.33 504.90 -67.98Q501.64 -68.63 498.67 -68.63Q493.64 -68.63 489.83 -67.15Q486.02 -65.66 483.41 -62.78Q480.81 -59.89 479.41 -55.61Q478.02 -51.34 478.02 -45.94Q478.02 -35.15 483.41 -29.02Q488.81 -22.88 498.67 -22.88Q501.64 -22.88 504.80 -23.53Q507.97 -24.18 511.13 -25.67Q515.41 -27.71 518.75 -26.50Q522.10 -25.30 524.15 -22.13Q526.19 -18.97 526.38 -15.16Q526.57 -11.35 524.71 -7.91Q522.85 -4.46 518.38 -2.79Q512.24 0.00 506.38 1.02Q500.53 2.05 495.13 2.05ZM583.85 2.05Q568.60 2.05 557.26 -3.72Q545.91 -9.49 539.59 -20.27Q533.26 -31.06 533.26 -45.76Q533.26 -56.92 536.80 -65.75Q540.33 -74.59 547.03 -80.82Q553.72 -87.05 563.02 -90.30Q572.32 -93.56 583.85 -93.56Q599.11 -93.56 610.45 -87.79Q621.80 -82.03 628.03 -71.33Q634.26 -60.64 634.26 -45.76Q634.26 -34.78 630.73 -25.85Q627.19 -16.93 620.59 -10.70Q613.99 -4.46 604.59 -1.21Q595.20 2.05 583.85 2.05ZM583.85 -22.32Q588.88 -22.32 592.78 -24.83Q596.69 -27.34 598.83 -32.46Q600.97 -37.57 600.97 -45.76Q600.97 -58.22 596.13 -63.70Q591.29 -69.19 583.85 -69.19Q578.83 -69.19 574.93 -66.77Q571.02 -64.36 568.79 -59.24Q566.56 -54.13 566.56 -45.76Q566.56 -33.48 571.39 -27.90Q576.23 -22.32 583.85 -22.32Z"/></g>
  <g transform="translate(234.3,572)"><path fill="#00B5E2" d="M8.23 -2.32Q7.17 -6.54 6.64 -10.28Q6.12 -14.03 5.91 -18.25Q5.80 -20.67 5.91 -22.41Q6.01 -24.15 5.48 -26.26Q5.38 -26.68 5.01 -26.89Q4.64 -27.11 4.27 -27.42Q3.90 -27.74 3.59 -28.21Q3.27 -28.69 3.27 -29.74Q3.27 -30.59 3.64 -31.22Q4.01 -31.85 4.38 -32.43Q4.75 -33.01 5.12 -33.70Q5.48 -34.38 5.48 -35.33V-36.91Q5.48 -37.97 5.27 -40.50Q5.06 -43.03 4.85 -45.88Q4.64 -48.73 4.48 -51.26Q4.32 -53.79 4.22 -54.74Q4.11 -56.53 3.27 -57.90Q2.43 -59.27 2.43 -61.07Q2.43 -64.44 3.80 -65.81Q5.17 -67.18 8.65 -67.18Q9.39 -67.18 9.86 -66.55Q10.34 -65.92 10.97 -65.92H11.39Q11.71 -66.02 12.34 -66.18Q12.97 -66.34 13.18 -66.34Q22.04 -70.14 27.00 -72.25Q31.96 -74.36 34.49 -75.30Q37.02 -76.25 37.92 -76.36Q38.81 -76.46 39.45 -76.15Q40.71 -75.94 41.19 -75.36Q41.66 -74.78 41.66 -73.62Q41.66 -72.56 41.34 -71.51Q41.03 -70.45 39.87 -69.93L26.05 -63.28L25.63 -62.86L14.03 -57.90Q13.39 -57.69 13.29 -56.85Q13.18 -56.00 13.18 -55.48Q13.18 -54.63 13.39 -52.42Q13.61 -50.20 13.82 -47.83Q14.03 -45.46 14.29 -43.61Q14.55 -41.77 14.66 -41.77H14.77Q14.77 -41.77 14.87 -41.87Q16.03 -42.71 18.56 -44.77Q21.09 -46.83 23.73 -48.94Q26.37 -51.05 28.37 -52.68Q30.38 -54.32 30.48 -54.32Q31.64 -54.32 32.59 -53.16Q33.54 -52.00 33.54 -50.73Q33.54 -49.46 33.01 -47.88Q32.48 -46.30 31.32 -45.46L14.87 -30.80Q14.87 -30.80 14.87 -30.27Q14.87 -29.74 14.82 -29.11Q14.77 -28.48 14.77 -27.79Q14.77 -27.11 14.77 -26.68Q14.77 -22.89 15.29 -19.14Q15.82 -15.40 15.82 -11.60H16.24Q16.35 -11.60 17.19 -12.45Q18.04 -13.29 18.46 -13.82Q18.67 -14.13 19.46 -15.19Q20.25 -16.24 22.15 -18.67Q24.05 -21.09 27.21 -25.10Q30.38 -29.11 35.33 -35.23Q35.75 -35.65 36.54 -36.49Q37.34 -37.34 37.55 -37.34Q37.86 -37.65 38.87 -37.60Q39.87 -37.55 40.29 -37.34Q40.82 -37.12 41.66 -36.18Q42.50 -35.23 42.50 -34.38Q42.50 -33.12 41.19 -31.06Q39.87 -29.00 38.07 -26.79Q36.28 -24.57 34.49 -22.52Q32.70 -20.46 31.75 -19.20Q30.27 -16.88 28.21 -13.55Q26.16 -10.23 23.73 -7.22Q21.30 -4.22 18.40 -2.06Q15.50 0.11 12.23 0.11Q10.65 0.11 9.97 -0.42Q9.28 -0.95 8.23 -2.32ZM76.99 -3.59Q75.52 -5.70 74.51 -9.44Q73.51 -13.18 72.62 -17.35Q71.72 -21.52 70.98 -25.47Q70.24 -29.43 69.45 -31.80Q68.66 -34.17 67.71 -34.49Q66.76 -34.80 65.50 -31.64L56.32 -3.38Q55.79 -1.90 55.05 -1.32Q54.32 -0.74 52.63 -0.74Q51.79 -0.74 50.84 -1.00Q49.89 -1.27 49.04 -1.79Q48.20 -2.32 47.62 -3.06Q47.04 -3.80 46.93 -4.75Q47.25 -6.01 47.51 -9.39Q47.78 -12.76 47.88 -17.19Q47.99 -21.62 48.04 -26.53Q48.09 -31.43 48.04 -35.70Q47.99 -39.97 47.88 -43.08Q47.78 -46.20 47.67 -47.14Q47.67 -48.20 47.72 -49.31Q47.78 -50.41 48.04 -51.36Q48.30 -52.31 48.99 -52.89Q49.68 -53.47 51.15 -53.47Q53.16 -53.47 54.90 -51.79Q56.64 -50.10 56.64 -48.20Q56.64 -45.46 56.37 -42.77Q56.11 -40.08 56.11 -37.34Q56.11 -35.65 56.11 -34.49Q56.11 -33.33 56.53 -31.64Q56.85 -32.48 57.59 -34.59Q58.32 -36.70 59.22 -39.02Q60.12 -41.34 60.86 -43.40Q61.59 -45.46 61.91 -46.30Q62.65 -48.41 64.12 -50.36Q65.60 -52.31 68.03 -52.52Q69.61 -52.63 70.93 -51.68Q72.25 -50.73 73.20 -49.20Q74.14 -47.67 74.78 -46.04Q75.41 -44.40 75.73 -43.24L81.42 -16.98L85.85 -4.96Q85.96 -4.85 85.96 -4.38Q85.96 -3.90 85.96 -3.69Q85.96 -2.43 85.38 -1.21Q84.80 0.00 83.32 0.00Q81.53 0.00 79.63 -1.00Q77.73 -2.00 76.99 -3.59ZM95.77 36.81Q95.34 35.65 95.82 34.17Q96.29 32.70 97.77 32.27Q100.20 33.33 102.83 33.64Q105.47 33.96 108.16 33.75Q110.85 33.54 113.48 32.91Q116.12 32.27 118.55 31.43Q120.97 29.43 121.92 26.21Q122.87 22.99 122.66 17.46Q122.45 11.92 121.24 3.64Q120.02 -4.64 118.12 -16.66Q118.12 -16.98 118.18 -17.61Q118.23 -18.25 118.12 -18.83Q118.02 -19.41 117.76 -19.72Q117.49 -20.04 117.07 -19.72Q115.70 -17.09 113.85 -13.97Q112.01 -10.86 109.63 -8.17Q107.26 -5.48 104.36 -3.69Q101.46 -1.90 97.88 -1.90Q94.71 -1.90 92.34 -3.74Q89.96 -5.59 89.96 -9.07Q89.96 -11.71 91.07 -15.71Q92.18 -19.72 94.08 -24.21Q95.98 -28.69 98.51 -33.12Q101.04 -37.55 103.78 -41.13Q106.52 -44.72 109.37 -46.99Q112.22 -49.25 114.86 -49.25Q115.91 -49.25 117.65 -48.88Q119.39 -48.52 121.03 -47.78Q122.66 -47.04 123.87 -46.09Q125.09 -45.14 125.09 -43.88V-35.33L131.94 14.45Q131.94 18.67 131.78 22.52Q131.62 26.37 130.41 29.64Q129.20 32.91 126.56 35.44Q123.93 37.97 118.97 39.55Q118.34 39.87 116.33 40.08Q114.33 40.29 111.74 40.39Q109.16 40.50 106.26 40.39Q103.36 40.29 100.99 39.92Q98.61 39.55 97.14 38.81Q95.66 38.07 95.77 36.81ZM112.22 -39.87Q111.16 -38.71 109.42 -36.18Q107.68 -33.64 105.89 -30.59Q104.10 -27.53 102.36 -24.21Q100.62 -20.88 99.56 -18.04Q98.51 -15.19 98.24 -13.18Q97.98 -11.18 99.14 -10.76Q101.36 -11.92 103.89 -14.61Q106.42 -17.30 108.69 -20.62Q110.95 -23.94 112.69 -27.47Q114.43 -31.01 115.12 -33.86Q115.80 -36.70 115.22 -38.44Q114.64 -40.18 112.22 -39.87ZM135.32 -7.38Q135.32 -11.81 135.53 -16.03Q135.74 -20.25 135.74 -24.68Q135.42 -36.70 135.53 -48.25Q135.63 -59.80 134.47 -71.93Q134.47 -73.93 135.42 -74.62Q136.37 -75.30 138.27 -75.30Q140.70 -75.30 142.44 -73.88Q144.18 -72.46 144.28 -69.93Q144.07 -54.95 144.65 -40.24Q145.23 -25.52 145.23 -10.44V-2.32Q144.60 -1.48 143.44 -0.63Q142.28 0.21 141.12 0.00Q138.06 -0.53 136.69 -2.48Q135.32 -4.43 135.32 -7.38ZM155.57 -4.01Q154.51 -14.55 153.77 -22.04Q153.04 -29.53 152.51 -34.59Q151.98 -39.66 151.61 -42.66Q151.24 -45.67 151.03 -47.20Q150.82 -48.73 150.71 -49.25Q150.61 -49.78 150.61 -49.89V-50.31Q150.61 -51.47 151.61 -52.26Q152.61 -53.05 153.67 -53.05Q155.25 -53.05 157.10 -52.52Q158.94 -52.00 159.57 -50.31Q160.52 -45.14 160.89 -39.87Q161.26 -34.59 161.53 -29.37Q161.79 -24.15 162.26 -18.88Q162.74 -13.61 164.00 -8.44Q164.00 -8.23 164.16 -7.59Q164.32 -6.96 164.48 -6.22Q164.64 -5.48 164.74 -4.85Q164.85 -4.22 164.85 -4.01V-3.80Q164.85 -3.69 164.95 -3.59Q164.95 -2.32 163.79 -1.05Q162.63 0.21 161.37 0.00Q161.05 -0.11 159.84 -0.37Q158.62 -0.63 158.20 -0.84Q157.89 -0.95 157.36 -1.32Q156.83 -1.69 156.36 -2.11Q155.88 -2.53 155.57 -3.06Q155.25 -3.59 155.57 -4.01ZM149.66 -80.89Q149.66 -81.63 150.87 -82.21Q152.09 -82.79 152.72 -82.79Q154.30 -82.79 156.25 -81.90Q158.20 -81.00 158.20 -79.21Q158.20 -77.41 157.73 -76.78Q157.25 -76.15 155.46 -76.15Q153.56 -76.15 151.61 -77.41Q149.66 -78.68 149.66 -80.89ZM184.78 -4.01Q184.78 -4.54 184.83 -4.96Q184.89 -5.38 185.31 -5.80Q186.57 -7.38 188.16 -9.12Q189.74 -10.86 191.21 -12.60Q192.69 -14.34 193.96 -16.24Q195.22 -18.14 196.07 -20.04V-20.67L182.25 -17.82H180.67Q179.19 -17.82 177.03 -18.04Q174.87 -18.25 172.81 -18.93Q170.75 -19.62 169.33 -20.88Q167.91 -22.15 167.91 -24.26Q168.01 -26.68 170.44 -29.64Q172.86 -32.59 176.13 -35.44Q179.40 -38.29 182.72 -40.71Q186.05 -43.14 188.05 -44.51Q190.27 -45.77 193.32 -46.56Q196.38 -47.36 198.91 -47.36Q201.02 -47.36 202.61 -46.56Q204.19 -45.77 204.19 -43.45Q204.19 -42.50 204.03 -41.66Q203.87 -40.82 202.71 -40.50Q199.34 -40.82 196.38 -40.03Q193.43 -39.23 190.79 -37.65Q188.16 -36.07 185.84 -33.91Q183.52 -31.75 181.30 -29.43Q180.67 -28.69 179.72 -27.37Q178.77 -26.05 178.77 -25.84V-25.73Q181.51 -25.73 184.20 -26.26Q186.89 -26.79 189.58 -27.37Q192.27 -27.95 194.96 -28.48Q197.65 -29.00 200.50 -29.00Q201.55 -29.00 202.82 -28.85Q204.08 -28.69 205.19 -28.16Q206.30 -27.63 206.98 -26.74Q207.67 -25.84 207.67 -24.47Q207.67 -22.46 206.67 -20.62Q205.66 -18.77 203.71 -16.19Q201.76 -13.61 198.76 -9.91Q195.75 -6.22 191.64 -0.42Q191.43 -0.11 190.63 0.00Q189.84 0.11 189.32 0.11Q187.84 0.11 186.31 -1.16Q184.78 -2.43 184.78 -4.01ZM213.89 -51.57Q214.10 -57.90 213.36 -64.23Q212.62 -70.56 212.62 -76.78Q212.62 -78.79 213.79 -79.26Q214.95 -79.73 216.42 -79.73Q218.53 -79.73 219.90 -78.57Q221.27 -77.41 221.48 -75.30Q222.43 -63.81 222.59 -52.58Q222.75 -41.34 224.12 -29.85Q227.29 -35.86 230.66 -39.76Q234.04 -43.66 237.15 -44.93Q240.26 -46.20 242.84 -44.46Q245.43 -42.71 247.01 -37.60Q248.59 -32.48 248.91 -23.68Q249.22 -14.87 247.85 -1.79Q247.11 -1.79 246.06 -1.74Q245.00 -1.69 244.00 -1.79Q243.00 -1.90 242.26 -2.21Q241.52 -2.53 241.42 -3.38Q242.26 -11.29 242.37 -16.66Q242.47 -22.04 242.05 -25.52Q241.63 -29.00 240.89 -30.85Q240.15 -32.70 239.31 -33.54Q238.46 -34.38 237.67 -34.44Q236.88 -34.49 236.46 -34.38Q234.14 -33.54 232.08 -30.27Q230.03 -27.00 228.55 -22.68Q227.07 -18.35 226.39 -13.55Q225.70 -8.75 226.02 -4.96Q225.91 -4.11 225.81 -3.27Q225.70 -2.43 225.44 -1.69Q225.18 -0.95 224.60 -0.47Q224.02 0.00 222.86 0.00Q220.64 0.00 219.32 -0.79Q218.00 -1.58 217.32 -2.85Q216.63 -4.11 216.47 -5.80Q216.32 -7.49 216.53 -9.28Z"/></g>
  <path d="M 346 607.3 C 336 607.6 329.5 605.5 326.5 600.5 C 323.8 595.5 326.5 589.5 332 587.5" fill="none" stroke="#00B5E2" stroke-width="6.6" stroke-linecap="round"/>
</svg>